<svg width="105" height="39" fill="none" xmlns="http://www.w3.org/2000/svg"><path d="M104.1 3.2c0 5.9-28 12.4-30.1 12.4-1.2 0-2.6-.3-2.6-1.4 0-.4.4-1 1.2-1.6l-2-3.5a1 1 0 01.5-1.3l.3-.1c.6-.3 1.3-.3 1.9 0l3.6 2L81.5 7l-7-4.6a1 1 0 010-1.5l.6-.4a4 4 0 013.2-.5l11.6 3.1C93.5 1.8 96.8.8 98.7.8h1.5l-3.5 1.6v1.2l5.4-2.5c1.3.3 2 1 2 2zm-14 10.2l4.3 5c.2.2.7.3 1 .1l.6-.2c1-.5 1.7-1.6 1.5-2.8l-.5-4.7c0-.3-.3-.5-.6-.4l-6.2 2.2c-.3.1-.4.5-.2.8zM18.7 4.9l-1.8-.6v-.9h5.4v.9l-.8.3-.8.3-3.8 13.7-2.2.3-3.3-10.5L8 18.6 6 19l-4.2-14c-.3 0-.6-.2-.8-.3-.3 0-.5-.2-.8-.3v-.9h7v.9a6.6 6.6 0 01-1.8.6l2 7.6.4 2.9.8-3 2.9-9h1.3l3 9 .7 2.7.6-2.8 1.7-7.4zM21.3 13.2c0-.9.1-1.7.4-2.4.2-.7.6-1.3 1.1-1.8A5 5 0 0124.6 8c.7-.3 1.5-.4 2.4-.4 1 0 1.8.2 2.5.4a4.5 4.5 0 012.9 3 7.7 7.7 0 01-.1 4.7 4.8 4.8 0 01-3 2.9c-.6.2-1.4.4-2.3.4a7 7 0 01-2.5-.4 5 5 0 01-1.8-1.2c-.5-.5-.8-1.1-1-1.8-.3-.7-.4-1.5-.4-2.3zm3.3 0l.1 1.8c0 .5.2 1 .4 1.4l.8.8c.4.2.8.3 1.4.3.3 0 .6 0 .8-.2.3-.1.5-.4.7-.7l.4-1.4a12 12 0 000-3.8c0-.5-.2-1-.4-1.4a2 2 0 00-.8-.8c-.3-.3-.7-.4-1.2-.4-.4 0-.7.1-1 .3-.2.1-.5.4-.6.7-.2.3-.4.8-.5 1.4l-.1 2zM39.5 10.3a3 3 0 00-.6.4l-.6 1v5.5a4.5 4.5 0 011.7.6v.8h-6.2v-.8l.8-.4.6-.2V9.3l-1.4-.2v-.8l.9-.3a12.3 12.3 0 012-.4h1.6v2.8h.1a5.4 5.4 0 011.3-2l1-.7 1-.2c.2.2.4.5.5.9l.3 1v.9h-3zM49.1 18.6h-5.9v-.8a7 7 0 011.4-.6V4.1L43 3.9v-.8l.8-.3 1-.2a16.6 16.6 0 012.2-.3h.7v15c.5 0 1 .2 1.4.5v.8zM57.6 16.5c0 .3-.2.6-.4.9l-.6.8-.9.5-1 .2c-1.5 0-2.5-.5-3.3-1.4-.7-.9-1-2.3-1-4.1 0-1 0-1.8.3-2.5.3-.8.6-1.4 1-1.9.6-.4 1.1-.8 1.8-1a6.2 6.2 0 012.8-.4 4.1 4.1 0 011 .2l.4.1V4.1L56 3.9v-.8l.8-.3a22.2 22.2 0 012.2-.3l1-.2h.7v14.8l1.4.1v.8l-.8.3a16.5 16.5 0 01-2.8.5H58l-.2-2.3zm-2 .6c.6 0 1-.1 1.3-.4.4-.4.6-.9.8-1.7V9.2l-.7-.3a4 4 0 00-1 0c-.9 0-1.5.3-1.8 1a8 8 0 00-.6 3.4 7 7 0 00.5 2.8c.3.7.9 1 1.6 1zM.8 33.3c0-.9.1-1.6.4-2.3.3-.8.6-1.4 1.1-1.8A5 5 0 014.1 28c.7-.2 1.5-.4 2.4-.4 1 0 1.9.2 2.6.5a4.5 4.5 0 012.8 3 7.7 7.7 0 010 4.6 4.8 4.8 0 01-3 3c-.7.2-1.5.3-2.4.3a7 7 0 01-2.5-.4 5 5 0 01-1.8-1.2c-.5-.5-.8-1-1-1.8-.3-.7-.4-1.5-.4-2.3zm3.3 0l.1 1.8c.1.6.3 1 .5 1.4.2.4.4.7.8.9.3.2.8.3 1.3.3.3 0 .6 0 .9-.2l.6-.8c.2-.3.3-.8.4-1.3a12 12 0 000-3.9c0-.5-.2-1-.4-1.3a2 2 0 00-.7-1L6.3 29c-.3 0-.7 0-1 .2l-.6.7-.4 1.4-.2 2zM19.7 22.4c.6 0 1.1 0 1.6.2l1 .3c0 .5 0 1-.2 1.5l-.4 1.2H21l-1-2a3 3 0 00-1 .1 1 1 0 00-.5.5c-.2.2-.3.5-.3 1l-.1 1.6V28h2.2v1.4h-2.2v8c.7.2 1.4.3 2 .6v.8h-6.5V38c.4-.3.9-.4 1.4-.5v-8.1h-1.6v-.9l1.6-.7v-.8c0-.9.1-1.6.3-2.2a3.4 3.4 0 012.6-2l1.8-.3zM26.8 28.4c.5-.3 1-.6 1.7-.7v-1.8l.4-.2.7-.2a17.6 17.6 0 011.2-.4h.8V28h2.8v1.4h-2.8v5.6c0 .9 0 1.5.3 1.8.2.4.6.6 1.1.6h.9l.9-.3.1.7c-.1.2-.3.3-.6.4a6 6 0 01-1.9.8l-1.2.1c-.9 0-1.6-.2-2-.7-.5-.5-.7-1.3-.7-2.4v-6.6h-1.7v-.9zM41.4 30.4a3 3 0 00-.6.4c-.3.2-.5.6-.7 1v5.6a4.5 4.5 0 011.8.5v.8h-6.3V38a12.2 12.2 0 011.4-.5v-8l-1.4-.1v-.9l.9-.3a12.3 12.3 0 012-.4h1.6v2.8h.1a5.4 5.4 0 011.3-2l1-.6c.4-.2.7-.3 1.1-.3a11.4 11.4 0 01.7 2v.8h-3zM54.4 35.6v.8l.1.8 1.5.2v.7l-.7.3a26.2 26.2 0 01-2.7.6h-.8l-.2-1v-1.3h-.2a3 3 0 01-1 1.6 3.3 3.3 0 01-2.1.7c-.5 0-1 0-1.3-.2l-1-.6a2.8 2.8 0 01-1-2.2c0-.7 0-1.2.3-1.6.3-.4.6-.8 1.1-1 .6-.3 1.2-.5 2-.6.9-.2 1.9-.3 3-.3.2-1.3.1-2.2 0-2.8-.3-.5-.8-.8-1.5-.8-.4 0-.8 0-1.2.2l-1 2.6h-1a7 7 0 01-.6-1.3 16.3 16.3 0 01-.4-1.5c.6-.4 1.3-.7 2.1-1a11 11 0 012.8-.3c.8 0 1.4.1 2 .3.5.2.9.4 1.1.8.3.3.6.6.7 1l.1 1.4a39.4 39.4 0 010 4.5zm-4.8 1.7c.3 0 .6 0 .8-.2a2 2 0 00.9-1l.2-.4v-2.2l-1.7.1c-.4.1-.8.2-1 .4l-.5.6-.1 1c0 .5 0 1 .3 1.2.3.3.7.5 1.1.5zM61.5 39l-4.3-9.7-1.1-.6V28h5.6v.8a21.5 21.5 0 01-1.2.6l2 5.5.4 1.5.4-1.5 1.8-5.5-.7-.3a4 4 0 01-.5-.3V28H68v.8l-.5.3-.7.3-3.7 9.4-1.6.3zM78 37l-.6.7a4 4 0 01-1 .6l-1.2.5-1.6.2c-.8 0-1.6-.1-2.3-.4a4.7 4.7 0 01-2.8-3c-.2-.6-.3-1.4-.3-2.3 0-1.8.5-3.2 1.4-4.2 1-1 2.3-1.5 4-1.5.7 0 1.4.1 2 .3a3.5 3.5 0 012.5 2.9c.2.7.2 1.6 0 2.7h-6.6c0 1.2.3 2 .9 2.7.5.7 1.4 1 2.5 1 .4 0 1 0 1.4-.2.5-.1 1-.3 1.2-.5l.4.4zm-4.5-8.1l-.8.1c-.2.1-.4.3-.5.6l-.4 1-.2 1.8H75c.1-1.1 0-2-.2-2.6-.2-.6-.6-1-1.3-1zM85.6 38.7h-6V38a7 7 0 011.5-.5V24.2l-1.6-.1v-.9l.7-.2 1-.3a16.6 16.6 0 012.3-.3h.7v15c.5 0 1 .3 1.4.5v.8z" fill="#FCF5ED"/></svg>