<svg width="147" height="56" fill="none" xmlns="http://www.w3.org/2000/svg"><path d="M146.8 5c0 8.4-39.5 17.5-42.5 17.5-1.6 0-3.5-.4-3.5-2 0-.5.6-1.2 1.6-2.1l-2.8-5c-.3-.7 0-1.6.7-1.8l.4-.2c1-.4 1.9-.3 2.7.1l5 2.7 6.5-3.6-9.8-6.5c-.7-.5-.7-1.6 0-2.1l.9-.5c1.3-.9 3-1.1 4.4-.7L126.7 5c5.1-2 9.7-3.4 12.4-3.4h2.2l-5 2.3v1.7l7.5-3.5c1.9.4 3 1.2 3 2.9zm-19.9 14.4l6.1 7c.4.4 1 .5 1.5.3l.8-.4a3.9 3.9 0 002.2-4l-.8-6.5c0-.4-.4-.7-.8-.6l-8.7 3.1c-.4.2-.5.7-.3 1zM26.6 7.5a8 8 0 01-2.5-1v-1h7.6v1c-.4.3-.7.5-1.1.6l-1.1.4-5.3 19.3-3.2.3-4.6-14.7-4.6 14.4-3.1.3-6-19.6-1-.4-1.1-.5V5.4h9.7v1.2a9.3 9.3 0 01-2.5.9l2.8 10.7.7 4 1-4.1 4-12.7h1.9L22.4 18l1 4h.1l.7-4 2.4-10.4zM30.3 19.1c0-1.2.2-2.3.5-3.3.4-1 1-1.8 1.6-2.5a7 7 0 012.6-1.6c1-.4 2-.5 3.3-.5 1.4 0 2.6.2 3.6.6a6.3 6.3 0 014 4.1 10.8 10.8 0 01-.1 6.6 6.7 6.7 0 01-4.2 4c-1 .4-2 .6-3.3.6-1.4 0-2.5-.2-3.5-.6a7 7 0 01-2.5-1.6 6.8 6.8 0 01-1.5-2.5c-.3-1-.5-2.1-.5-3.3zm4.7 0l.1 2.6c.1.7.3 1.4.6 1.9s.7 1 1.2 1.2c.4.3 1 .5 1.8.5.5 0 .9-.1 1.2-.3l1-1a6 6 0 00.5-2 17 17 0 000-5.4c0-.7-.2-1.4-.5-2l-1-1.1c-.6-.3-1.1-.5-1.8-.5-.6 0-1 .1-1.4.3l-1 1-.6 2A19 19 0 0035 19zM56 15l-.9.6-.9 1.4v7.8a6.3 6.3 0 012.5.8v1.2h-8.8v-1.2l1-.5c.4 0 .7-.2 1-.3V13.7l-2-.3v-1.2a6058 6058 0 015.3-1.1h1v4.1h.2a7.6 7.6 0 011.8-2.7c.4-.4.9-.8 1.4-1 .5-.3 1-.4 1.5-.3l.6 1.2.4 1.4V15H56zM69.4 26.8h-8.3v-1.2c.7-.4 1.4-.6 2-.8V6.4L60.8 6V5l1.1-.3 1.5-.3a23.4 23.4 0 013-.5h1v21c.7.2 1.4.4 2 .8v1.2zM81.4 23.7a4 4 0 01-.6 1.3c-.2.4-.5.8-.9 1.1l-1.2.8a4 4 0 01-1.5.2c-2 0-3.5-.6-4.5-1.9-1-1.2-1.6-3.2-1.6-5.8 0-1.4.2-2.5.6-3.5a6.3 6.3 0 013.9-4.1 8.7 8.7 0 014-.5 5.8 5.8 0 011.2.2l.7.2V6.4L79.2 6V5l1.1-.3a31.2 31.2 0 013.2-.6l1.3-.2h1v20.8l2 .2V26a23.2 23.2 0 01-5 1.2h-1l-.3-3.4h-.1zm-2.8 1c.7 0 1.3-.2 1.8-.7.5-.4.9-1.2 1-2.3v-8.2l-1-.4L79 13c-1.1 0-2 .5-2.5 1.6-.5 1-.7 2.6-.7 4.6 0 1.7.2 3 .6 4 .5 1 1.2 1.5 2.2 1.5zM1.5 47.4c0-1.2.2-2.3.6-3.3.3-1 .9-1.8 1.6-2.5A7 7 0 016.2 40c1-.4 2-.5 3.3-.5 1.4 0 2.6.2 3.6.6a6.3 6.3 0 014 4.1 10.8 10.8 0 01-.1 6.6 6.7 6.7 0 01-4.1 4c-1 .5-2.1.6-3.4.6-1.3 0-2.5-.2-3.5-.5a7 7 0 01-2.5-1.7A6.8 6.8 0 012 50.7c-.3-1-.5-2-.5-3.3zm4.7 0l.1 2.6.6 1.9c.3.5.7 1 1.2 1.3.5.2 1 .4 1.8.4.5 0 .9-.1 1.3-.3l.9-1a6 6 0 00.6-2 17 17 0 000-5.4c-.1-.7-.3-1.4-.6-1.9-.2-.5-.6-1-1-1.2-.5-.3-1.1-.5-1.8-.5-.5 0-1 .1-1.4.4-.3.2-.7.5-1 1-.2.5-.4 1-.5 1.9a19 19 0 00-.2 2.8zM28.1 32.1a9 9 0 012.2.3l1.5.4a34.1 34.1 0 01-1 3.8h-1l-1.3-2.8-1.3.1c-.3.1-.6.4-.8.7a4 4 0 00-.5 1.4l-.1 2.3v1.5H29v2h-3.2v11.4c1 0 2 .3 2.9.7V55h-9.2v-1.2c.6-.4 1.2-.6 2-.7V41.7h-2.3v-1.1c.7-.5 1.4-.8 2.2-1v-1.1c0-1.3.2-2.3.6-3.1a4.8 4.8 0 013.5-3 12 12 0 012.6-.3zM38 40.6c.8-.5 1.6-.9 2.4-1V37c.1-.2.3-.3.6-.4l1-.3a24.9 24.9 0 011.7-.4h1v3.8h4v2h-4v7.8c0 1.3.2 2.2.5 2.7s.8.7 1.6.7H48l1.2-.4.2 1c-.1.2-.4.4-.8.6a8.4 8.4 0 01-2.6 1c-.6.2-1.1.2-1.7.2-1.3 0-2.3-.3-3-1-.6-.7-.9-1.8-.9-3.4v-9.3H38v-1.1zM58.5 43.3l-.8.6-.9 1.4v7.9a6.3 6.3 0 012.4.7V55h-8.7v-1.2l1-.5 1-.2V42l-2-.3v-1.1a17.3 17.3 0 014-1l1.3-.1h1v4h.1a7.6 7.6 0 011.8-2.7l1.4-1c.5-.2 1-.4 1.6-.3a16 16 0 011 2.7v1.1h-4.2zM76.9 50.7v2.1l2.2.4v1a36.8 36.8 0 01-4.8 1.2h-1c-.2-.5-.4-1-.4-1.4l-.1-1.7h-.1a4.1 4.1 0 01-1.5 2.2 4.6 4.6 0 01-3 1c-.6 0-1.2-.2-1.8-.4-.6-.2-1-.5-1.5-.8a4 4 0 01-1.3-3.1c0-1 .1-1.7.5-2.3.3-.5.8-1 1.6-1.4.7-.4 1.7-.7 2.8-.8 1.2-.2 2.6-.4 4.2-.4.2-1.8.1-3-.2-3.9-.3-.8-1-1.2-2-1.2-.6 0-1.1.1-1.7.3l-1.4 3.7h-1.3a9.8 9.8 0 01-1-1.9 22.9 22.9 0 01-.4-2.1 9 9 0 013-1.3c1.1-.3 2.4-.4 3.7-.4 1.2 0 2.1 0 2.8.4.8.2 1.3.5 1.7 1 .5.4.7 1 .9 1.5.2.6.2 1.2.2 2a55.5 55.5 0 01-.1 6.3zM70.1 53c.4 0 .8 0 1.1-.2a2.8 2.8 0 001.2-1.4c.2-.2.3-.5.3-.7v-3c-1 0-1.7 0-2.3.2-.6 0-1 .3-1.4.5-.4.2-.6.5-.7.9a4 4 0 00-.2 1.3c0 .7.2 1.3.5 1.8.4.4.9.6 1.5.6zM86.8 55.4l-6-13.7-1.6-.7v-1.2h8V41a29.8 29.8 0 01-1.8.7l2.8 7.9.6 2 .5-2 2.6-7.9c-.3 0-.7-.1-1-.3l-.7-.4v-1.2H96V41l-.7.4-1 .3L89 55.1l-2.2.3zM110 52.5a4 4 0 01-.9 1c-.3.4-.7.7-1.3 1l-1.7.7-2.2.2c-1.3 0-2.4-.1-3.3-.5a6.6 6.6 0 01-3.9-4.2c-.3-1-.5-2-.5-3.3 0-2.6.7-4.5 2-5.9 1.4-1.4 3.2-2 5.6-2 1 0 2 .1 2.9.4a4.9 4.9 0 013.5 4c.2 1 .2 2.3 0 3.8h-9.3a6 6 0 001.2 3.9c.8 1 2 1.4 3.5 1.4.7 0 1.4-.1 2-.3.8-.2 1.3-.5 1.7-.8l.6.6zm-6.3-11.3c-.4 0-.8 0-1 .2a2 2 0 00-.9.8 5 5 0 00-.5 1.5 16 16 0 00-.3 2.4h4.8c.2-1.5 0-2.8-.3-3.6-.3-.9-.9-1.3-1.8-1.3zM120.7 55h-8.3V54c.6-.3 1.3-.6 2-.7V34.7l-2.3-.3v-1.2l1-.3 1.5-.3a23.4 23.4 0 013-.5h1.1v21l2 .8V55z" fill="#FCF5ED"/></svg>